<svg width="325" height="329" viewBox="0 0 325 329" fill="none" xmlns="http://www.w3.org/2000/svg">
<g style="mix-blend-mode:plus-lighter">
<path d="M258.552 256.885C247.697 278.055 231.184 295.834 210.828 308.265C190.471 320.697 167.063 327.3 143.178 327.343C132.926 327.387 122.706 326.182 112.749 323.756L132.615 280.059C150.152 282.371 167.971 279.018 183.45 270.496C198.929 261.973 211.249 248.731 218.597 232.718C225.945 216.706 227.932 198.77 224.265 181.549C220.6 164.329 211.474 148.733 198.232 137.06L218.098 93.5088C243.385 111.409 261.376 137.743 268.799 167.725C276.223 197.708 272.587 229.345 258.552 256.885Z" fill="url(#paint0_linear_83_588)"/>
<path d="M230.274 8.995L210.696 51.6862C196.255 47.4572 180.927 47.2337 166.367 51.0396C151.808 54.8455 138.57 62.5369 128.082 73.2826C117.595 84.0283 110.257 97.4203 106.86 112.012C103.463 126.606 104.135 141.845 108.808 156.084C114.656 174.206 126.714 189.709 142.879 199.888L123.301 242.652C94.3713 226.258 72.899 199.406 63.3447 167.673C53.7904 135.939 56.8885 101.763 71.9957 72.243C86.1931 44.4029 110.07 22.6429 139.184 11.0087C168.299 -0.625431 200.669 -1.34116 230.274 8.995Z" fill="url(#paint1_linear_83_588)"/>
<path d="M199.53 227.144C194.275 237.423 186.028 245.887 175.868 251.436C165.706 256.984 154.102 259.357 142.565 258.249L187.849 159.411C196.881 167.935 202.896 179.139 205.002 191.346C207.107 203.554 205.189 216.112 199.53 227.144Z" fill="url(#paint2_linear_83_588)"/>
<path d="M199.772 75.759L154.092 175.492C142.214 168.628 133.326 157.614 129.156 144.593C124.985 131.571 125.83 117.471 131.526 105.035C137.222 92.5984 147.363 82.7138 159.976 77.3027C172.589 71.8916 186.774 71.341 199.772 75.759Z" fill="url(#paint3_linear_83_588)"/>
<path d="M258.552 256.885C247.697 278.055 231.184 295.834 210.828 308.265C190.471 320.697 167.063 327.3 143.178 327.343C132.926 327.387 122.706 326.182 112.749 323.756L132.615 280.059C150.152 282.371 167.971 279.018 183.45 270.496C198.929 261.973 211.249 248.731 218.597 232.718C225.945 216.706 227.932 198.77 224.265 181.549C220.6 164.329 211.474 148.733 198.232 137.06L218.098 93.5088C243.385 111.409 261.376 137.743 268.799 167.725C276.223 197.708 272.587 229.345 258.552 256.885Z" stroke="url(#paint4_linear_83_588)" stroke-opacity="0.4" stroke-width="1.79768"/>
<path d="M230.274 8.995L210.696 51.6862C196.255 47.4572 180.927 47.2337 166.367 51.0396C151.808 54.8455 138.57 62.5369 128.082 73.2826C117.595 84.0283 110.257 97.4203 106.86 112.012C103.463 126.606 104.135 141.845 108.808 156.084C114.656 174.206 126.714 189.709 142.879 199.888L123.301 242.652C94.3713 226.258 72.899 199.406 63.3447 167.673C53.7904 135.939 56.8885 101.763 71.9957 72.243C86.1931 44.4029 110.07 22.6429 139.184 11.0087C168.299 -0.625431 200.669 -1.34116 230.274 8.995Z" stroke="url(#paint5_linear_83_588)" stroke-opacity="0.4" stroke-width="1.79768"/>
<path d="M199.53 227.144C194.275 237.423 186.028 245.887 175.868 251.436C165.706 256.984 154.102 259.357 142.565 258.249L187.849 159.411C196.881 167.935 202.896 179.139 205.002 191.346C207.107 203.554 205.189 216.112 199.53 227.144Z" stroke="url(#paint6_linear_83_588)" stroke-opacity="0.4" stroke-width="1.79768"/>
<path d="M199.772 75.759L154.092 175.492C142.214 168.628 133.326 157.614 129.156 144.593C124.985 131.571 125.83 117.471 131.526 105.035C137.222 92.5984 147.363 82.7138 159.976 77.3027C172.589 71.8916 186.774 71.341 199.772 75.759Z" stroke="url(#paint7_linear_83_588)" stroke-opacity="0.4" stroke-width="1.79768"/>
</g>
<g style="mix-blend-mode:plus-lighter">
<path d="M258.552 256.885C247.697 278.055 231.184 295.833 210.828 308.265C190.472 320.697 167.063 327.3 143.178 327.343C132.926 327.387 122.706 326.182 112.749 323.756L132.615 280.059C150.152 282.371 167.971 279.018 183.45 270.496C198.929 261.973 211.249 248.731 218.597 232.718C225.945 216.706 227.932 198.77 224.265 181.549C220.6 164.329 211.474 148.733 198.232 137.06L218.098 93.5088C243.385 111.409 261.376 137.743 268.799 167.725C276.223 197.707 272.587 229.345 258.552 256.885Z" stroke="url(#paint8_linear_83_588)" stroke-opacity="0.4" stroke-width="1.79768"/>
<path d="M230.274 8.995L210.696 51.6862C196.255 47.4572 180.927 47.2337 166.367 51.0396C151.808 54.8455 138.57 62.5369 128.082 73.2826C117.595 84.0283 110.257 97.4203 106.86 112.012C103.463 126.606 104.135 141.845 108.808 156.084C114.656 174.206 126.714 189.709 142.879 199.888L123.301 242.652C94.3713 226.258 72.899 199.406 63.3447 167.673C53.7904 135.939 56.8885 101.763 71.9957 72.243C86.1931 44.4029 110.07 22.6429 139.184 11.0087C168.299 -0.625431 200.669 -1.34116 230.274 8.995Z" stroke="url(#paint9_linear_83_588)" stroke-opacity="0.4" stroke-width="1.79768"/>
<path d="M199.53 227.144C194.275 237.423 186.028 245.887 175.868 251.436C165.706 256.984 154.102 259.357 142.565 258.249L187.849 159.411C196.881 167.935 202.896 179.139 205.002 191.346C207.107 203.554 205.189 216.112 199.53 227.144Z" stroke="url(#paint10_linear_83_588)" stroke-opacity="0.4" stroke-width="1.79768"/>
<path d="M199.772 75.759L154.092 175.492C142.214 168.628 133.326 157.614 129.156 144.593C124.985 131.571 125.83 117.471 131.526 105.035C137.222 92.5984 147.363 82.7138 159.976 77.3027C172.589 71.8916 186.774 71.341 199.772 75.759Z" stroke="url(#paint11_linear_83_588)" stroke-opacity="0.4" stroke-width="1.79768"/>
</g>
<defs>
<linearGradient id="paint0_linear_83_588" x1="165.317" y1="327.678" x2="193.728" y2="3.76751" gradientUnits="userSpaceOnUse">
<stop stop-color="#814AC8" stop-opacity="0.6"/>
<stop offset="1" stop-color="#814AC8"/>
</linearGradient>
<linearGradient id="paint1_linear_83_588" x1="165.317" y1="327.678" x2="193.728" y2="3.76751" gradientUnits="userSpaceOnUse">
<stop stop-color="#814AC8" stop-opacity="0.6"/>
<stop offset="1" stop-color="#814AC8"/>
</linearGradient>
<linearGradient id="paint2_linear_83_588" x1="165.317" y1="327.678" x2="193.728" y2="3.76751" gradientUnits="userSpaceOnUse">
<stop stop-color="#814AC8" stop-opacity="0.6"/>
<stop offset="1" stop-color="#814AC8"/>
</linearGradient>
<linearGradient id="paint3_linear_83_588" x1="165.317" y1="327.678" x2="193.728" y2="3.76751" gradientUnits="userSpaceOnUse">
<stop stop-color="#814AC8" stop-opacity="0.6"/>
<stop offset="1" stop-color="#814AC8"/>
</linearGradient>
<linearGradient id="paint4_linear_83_588" x1="165.23" y1="1.7312" x2="165.23" y2="327.344" gradientUnits="userSpaceOnUse">
<stop stop-color="white"/>
<stop offset="1"/>
</linearGradient>
<linearGradient id="paint5_linear_83_588" x1="165.23" y1="1.7312" x2="165.23" y2="327.344" gradientUnits="userSpaceOnUse">
<stop stop-color="white"/>
<stop offset="1"/>
</linearGradient>
<linearGradient id="paint6_linear_83_588" x1="165.23" y1="1.7312" x2="165.23" y2="327.344" gradientUnits="userSpaceOnUse">
<stop stop-color="white"/>
<stop offset="1"/>
</linearGradient>
<linearGradient id="paint7_linear_83_588" x1="165.23" y1="1.7312" x2="165.23" y2="327.344" gradientUnits="userSpaceOnUse">
<stop stop-color="white"/>
<stop offset="1"/>
</linearGradient>
<linearGradient id="paint8_linear_83_588" x1="165.23" y1="1.7312" x2="165.23" y2="327.344" gradientUnits="userSpaceOnUse">
<stop stop-color="white"/>
<stop offset="1"/>
</linearGradient>
<linearGradient id="paint9_linear_83_588" x1="165.23" y1="1.7312" x2="165.23" y2="327.344" gradientUnits="userSpaceOnUse">
<stop stop-color="white"/>
<stop offset="1"/>
</linearGradient>
<linearGradient id="paint10_linear_83_588" x1="165.23" y1="1.7312" x2="165.23" y2="327.344" gradientUnits="userSpaceOnUse">
<stop stop-color="white"/>
<stop offset="1"/>
</linearGradient>
<linearGradient id="paint11_linear_83_588" x1="165.23" y1="1.7312" x2="165.23" y2="327.344" gradientUnits="userSpaceOnUse">
<stop stop-color="white"/>
<stop offset="1"/>
</linearGradient>
</defs>
</svg>
